
<svg width="929px" height="669px" viewBox="0 0 929 669" xmlns="http://www.w3.org/2000/svg" xmlns:xlink="http://www.w3.org/1999/xlink">
  <linearGradient x1="136.456649%" y1="81.014545%" x2="0%" y2="0%" id="linearGradient-1">
      <stop stop-color="#4001F5" offset="0%"></stop>
      <stop stop-color="#F037A5" offset="100%"></stop>
  </linearGradient>
  <path d="M520.27075,509.251614 C590.509068,499.918823 656.024437,551.366673 668.515392,627.55649 C681.410284,706.297717 632.798097,781.430042 559.903121,795.378871 C502.777199,806.306294 447.841855,776.276864 420.482935,724.912942 C401.995079,735.941078 381.596293,743.964593 359.659441,748.160992 C252.585236,768.639418 150.404874,691.459251 131.450937,575.772928 C112.497001,460.086605 183.931591,349.704531 291.005797,329.226104 C398.080003,308.747678 500.244829,385.91106 519.198765,501.597382 C519.618238,504.148793 519.944494,506.700203 520.27075,509.251614 Z M801.564259,34.2243026 C819.228707,142.071752 752.641352,244.967452 652.838001,264.052673 C553.019113,283.154681 457.78335,211.211619 440.103366,103.36417 C422.438919,-4.46649452 489.026273,-107.378979 588.845161,-126.464201 C688.648512,-145.566209 783.884276,-73.6063616 801.564259,34.2243026 Z M575.956484,419.16836 C547.230395,424.657249 519.824867,403.96061 514.74459,372.924045 C509.648778,341.887479 528.820219,312.277689 557.546308,306.788799 C586.256861,301.299909 613.662389,321.996548 618.758201,353.033114 C623.838478,384.06968 604.682573,413.67947 575.956484,419.16836 Z" id="10" fill="url(#linearGradient-1)" transform="translate(466.403728, 334.039028) rotate(269.000000) translate(-466.403728, -334.039028) "></path>
</svg>
